<svg width="789" height="146" viewBox="0 0 789 146" fill="none" xmlns="http://www.w3.org/2000/svg">
<rect width="789" height="146" fill="#FFFFFF"/>
<g clip-path="url(#clip0_16_22)">
<rect width="1920" height="8612" transform="translate(-160 -7961)" fill="#0F0F0F"/>
<mask id="path-1-inside-1_16_22" fill="white">
<path d="M-160 -261H1760V651H-160V-261Z"/>
</mask>
<path d="M1760 -262H1751.97V-260H1760V-262ZM1745.96 -262H1729.91V-260H1745.96V-262ZM1723.89 -262H1707.84V-260H1723.89V-262ZM1701.82 -262H1685.77V-260H1701.82V-262ZM1679.75 -262H1663.7V-260H1679.75V-262ZM1657.68 -262H1641.63V-260H1657.68V-262ZM1635.61 -262H1619.56V-260H1635.61V-262ZM1613.54 -262H1597.49V-260H1613.54V-262ZM1591.47 -262H1575.42V-260H1591.47V-262ZM1569.4 -262H1553.35V-260H1569.4V-262ZM1547.34 -262H1531.29V-260H1547.34V-262ZM1525.27 -262H1509.22V-260H1525.27V-262ZM1503.2 -262H1487.15V-260H1503.2V-262ZM1481.13 -262H1465.08V-260H1481.13V-262ZM1459.06 -262H1443.01V-260H1459.06V-262ZM1436.99 -262H1420.94V-260H1436.99V-262ZM1414.92 -262H1398.87V-260H1414.92V-262ZM1392.85 -262H1376.8V-260H1392.85V-262ZM1370.78 -262H1354.73V-260H1370.78V-262ZM1348.71 -262H1332.66V-260H1348.71V-262ZM1326.65 -262H1310.6V-260H1326.65V-262ZM1304.58 -262H1288.53V-260H1304.58V-262ZM1282.51 -262H1266.46V-260H1282.51V-262ZM1260.44 -262H1244.39V-260H1260.44V-262ZM1238.37 -262H1222.32V-260H1238.37V-262ZM1216.3 -262H1200.25V-260H1216.3V-262ZM1194.23 -262H1178.18V-260H1194.23V-262ZM1172.16 -262H1156.11V-260H1172.16V-262ZM1150.09 -262H1134.04V-260H1150.09V-262ZM1128.03 -262H1111.97V-260H1128.03V-262ZM1105.96 -262H1089.91V-260H1105.96V-262ZM1083.89 -262H1067.84V-260H1083.89V-262ZM1061.82 -262H1045.77V-260H1061.82V-262ZM1039.75 -262H1023.7V-260H1039.75V-262ZM1017.68 -262H1001.63V-260H1017.68V-262ZM995.611 -262H979.561V-260H995.611V-262ZM973.542 -262H957.492V-260H973.542V-262ZM951.473 -262H935.423V-260H951.473V-262ZM929.404 -262H913.354V-260H929.404V-262ZM907.335 -262H891.285V-260H907.335V-262ZM885.266 -262H869.216V-260H885.266V-262ZM863.197 -262H847.147V-260H863.197V-262ZM841.128 -262H825.078V-260H841.128V-262ZM819.059 -262H803.009V-260H819.059V-262ZM796.99 -262H780.94V-260H796.99V-262ZM774.922 -262H758.871V-260H774.922V-262ZM752.853 -262H736.802V-260H752.853V-262ZM730.784 -262H714.733V-260H730.784V-262ZM708.715 -262H692.664V-260H708.715V-262ZM686.646 -262H670.595V-260H686.646V-262ZM664.577 -262H648.526V-260H664.577V-262ZM642.508 -262H626.458V-260H642.508V-262ZM620.439 -262H604.389V-260H620.439V-262ZM598.37 -262H582.32V-260H598.37V-262ZM576.301 -262H560.251V-260H576.301V-262ZM554.232 -262H538.182V-260H554.232V-262ZM532.163 -262H516.113V-260H532.163V-262ZM510.094 -262H494.044V-260H510.094V-262ZM488.025 -262H471.975V-260H488.025V-262ZM465.956 -262H449.906V-260H465.956V-262ZM443.887 -262H427.837V-260H443.887V-262ZM421.818 -262H405.768V-260H421.818V-262ZM399.749 -262H383.699V-260H399.749V-262ZM377.68 -262H361.63V-260H377.68V-262ZM355.611 -262H339.561V-260H355.611V-262ZM333.542 -262H317.492V-260H333.542V-262ZM311.473 -262H295.423V-260H311.473V-262ZM289.404 -262H273.354V-260H289.404V-262ZM267.335 -262H251.285V-260H267.335V-262ZM245.266 -262H229.216V-260H245.266V-262ZM223.197 -262H207.147V-260H223.197V-262ZM201.128 -262H185.078V-260H201.128V-262ZM179.059 -262H163.009V-260H179.059V-262ZM156.99 -262H140.94V-260H156.99V-262ZM134.921 -262H118.871V-260H134.921V-262ZM112.852 -262H96.8022V-260H112.852V-262ZM90.7834 -262H74.7333V-260H90.7834V-262ZM68.7145 -262H52.6643V-260H68.7145V-262ZM46.6455 -262H30.5953V-260H46.6455V-262ZM24.5765 -262H8.52638V-260H24.5765V-262ZM2.5076 -262H-13.5426V-260H2.5076V-262ZM-19.5614 -262H-35.6115V-260H-19.5614V-262ZM-41.6303 -262H-57.6805V-260H-41.6303V-262ZM-63.6993 -262H-79.7496V-260H-63.6993V-262ZM-85.7684 -262H-101.818V-260H-85.7684V-262ZM-107.837 -262H-123.887V-260H-107.837V-262ZM-129.906 -262H-145.956V-260H-129.906V-262ZM-151.975 -262H-160V-260H-151.975V-262ZM1760 -263H1751.97V-259H1760V-263ZM1745.96 -263H1729.91V-259H1745.96V-263ZM1723.89 -263H1707.84V-259H1723.89V-263ZM1701.82 -263H1685.77V-259H1701.82V-263ZM1679.75 -263H1663.7V-259H1679.75V-263ZM1657.68 -263H1641.63V-259H1657.68V-263ZM1635.61 -263H1619.56V-259H1635.61V-263ZM1613.54 -263H1597.49V-259H1613.54V-263ZM1591.47 -263H1575.42V-259H1591.47V-263ZM1569.4 -263H1553.35V-259H1569.4V-263ZM1547.34 -263H1531.29V-259H1547.34V-263ZM1525.27 -263H1509.22V-259H1525.27V-263ZM1503.2 -263H1487.15V-259H1503.2V-263ZM1481.13 -263H1465.08V-259H1481.13V-263ZM1459.06 -263H1443.01V-259H1459.06V-263ZM1436.99 -263H1420.94V-259H1436.99V-263ZM1414.92 -263H1398.87V-259H1414.92V-263ZM1392.85 -263H1376.8V-259H1392.85V-263ZM1370.78 -263H1354.73V-259H1370.78V-263ZM1348.71 -263H1332.66V-259H1348.71V-263ZM1326.65 -263H1310.6V-259H1326.65V-263ZM1304.58 -263H1288.53V-259H1304.58V-263ZM1282.51 -263H1266.46V-259H1282.51V-263ZM1260.44 -263H1244.39V-259H1260.44V-263ZM1238.37 -263H1222.32V-259H1238.37V-263ZM1216.3 -263H1200.25V-259H1216.3V-263ZM1194.23 -263H1178.18V-259H1194.23V-263ZM1172.16 -263H1156.11V-259H1172.16V-263ZM1150.09 -263H1134.04V-259H1150.09V-263ZM1128.03 -263H1111.97V-259H1128.03V-263ZM1105.96 -263H1089.91V-259H1105.96V-263ZM1083.89 -263H1067.84V-259H1083.89V-263ZM1061.82 -263H1045.77V-259H1061.82V-263ZM1039.75 -263H1023.7V-259H1039.75V-263ZM1017.68 -263H1001.63V-259H1017.68V-263ZM995.611 -263H979.561V-259H995.611V-263ZM973.542 -263H957.492V-259H973.542V-263ZM951.473 -263H935.423V-259H951.473V-263ZM929.404 -263H913.354V-259H929.404V-263ZM907.335 -263H891.285V-259H907.335V-263ZM885.266 -263H869.216V-259H885.266V-263ZM863.197 -263H847.147V-259H863.197V-263ZM841.128 -263H825.078V-259H841.128V-263ZM819.059 -263H803.009V-259H819.059V-263ZM796.99 -263H780.94V-259H796.99V-263ZM774.922 -263H758.871V-259H774.922V-263ZM752.853 -263H736.802V-259H752.853V-263ZM730.784 -263H714.733V-259H730.784V-263ZM708.715 -263H692.664V-259H708.715V-263ZM686.646 -263H670.595V-259H686.646V-263ZM664.577 -263H648.526V-259H664.577V-263ZM642.508 -263H626.458V-259H642.508V-263ZM620.439 -263H604.389V-259H620.439V-263ZM598.37 -263H582.32V-259H598.37V-263ZM576.301 -263H560.251V-259H576.301V-263ZM554.232 -263H538.182V-259H554.232V-263ZM532.163 -263H516.113V-259H532.163V-263ZM510.094 -263H494.044V-259H510.094V-263ZM488.025 -263H471.975V-259H488.025V-263ZM465.956 -263H449.906V-259H465.956V-263ZM443.887 -263H427.837V-259H443.887V-263ZM421.818 -263H405.768V-259H421.818V-263ZM399.749 -263H383.699V-259H399.749V-263ZM377.68 -263H361.63V-259H377.68V-263ZM355.611 -263H339.561V-259H355.611V-263ZM333.542 -263H317.492V-259H333.542V-263ZM311.473 -263H295.423V-259H311.473V-263ZM289.404 -263H273.354V-259H289.404V-263ZM267.335 -263H251.285V-259H267.335V-263ZM245.266 -263H229.216V-259H245.266V-263ZM223.197 -263H207.147V-259H223.197V-263ZM201.128 -263H185.078V-259H201.128V-263ZM179.059 -263H163.009V-259H179.059V-263ZM156.99 -263H140.94V-259H156.99V-263ZM134.921 -263H118.871V-259H134.921V-263ZM112.852 -263H96.8022V-259H112.852V-263ZM90.7834 -263H74.7333V-259H90.7834V-263ZM68.7145 -263H52.6643V-259H68.7145V-263ZM46.6455 -263H30.5953V-259H46.6455V-263ZM24.5765 -263H8.52638V-259H24.5765V-263ZM2.5076 -263H-13.5426V-259H2.5076V-263ZM-19.5614 -263H-35.6115V-259H-19.5614V-263ZM-41.6303 -263H-57.6805V-259H-41.6303V-263ZM-63.6993 -263H-79.7496V-259H-63.6993V-263ZM-85.7684 -263H-101.818V-259H-85.7684V-263ZM-107.837 -263H-123.887V-259H-107.837V-263ZM-129.906 -263H-145.956V-259H-129.906V-263ZM-151.975 -263H-160V-259H-151.975V-263Z" fill="#262626" mask="url(#path-1-inside-1_16_22)"/>
<mask id="path-3-inside-2_16_22" fill="white">
<path d="M-160 -101H1760V245H-160V-101Z"/>
</mask>
<path d="M-160 246H-151.975V244H-160V246ZM-145.956 246H-129.906V244H-145.956V246ZM-123.887 246H-107.837V244H-123.887V246ZM-101.818 246H-85.768V244H-101.818V246ZM-79.7492 246H-63.6991V244H-79.7492V246ZM-57.6803 246H-41.6301V244H-57.6803V246ZM-35.6113 246H-19.5611V244H-35.6113V246ZM-13.5423 246H2.50784V244H-13.5423V246ZM8.52666 246H24.5768V244H8.52666V246ZM30.5956 246H46.6458V244H30.5956V246ZM52.6646 246H68.7148V244H52.6646V246ZM74.7336 246H90.7837V244H74.7336V246ZM96.8025 246H112.853V244H96.8025V246ZM118.871 246H134.922V244H118.871V246ZM140.94 246H156.991V244H140.94V246ZM163.009 246H179.06V244H163.009V246ZM185.078 246H201.129V244H185.078V246ZM207.147 246H223.198V244H207.147V246ZM229.216 246H245.267V244H229.216V246ZM251.285 246H267.335V244H251.285V246ZM273.354 246H289.404V244H273.354V246ZM295.423 246H311.473V244H295.423V246ZM317.492 246H333.542V244H317.492V246ZM339.561 246H355.611V244H339.561V246ZM361.63 246H377.68V244H361.63V246ZM383.699 246H399.749V244H383.699V246ZM405.768 246H421.818V244H405.768V246ZM427.837 246H443.887V244H427.837V246ZM449.906 246H465.956V244H449.906V246ZM471.975 246H488.025V244H471.975V246ZM494.044 246H510.094V244H494.044V246ZM516.113 246H532.163V244H516.113V246ZM538.182 246H554.232V244H538.182V246ZM560.251 246H576.301V244H560.251V246ZM582.32 246H598.37V244H582.32V246ZM604.389 246H620.439V244H604.389V246ZM626.458 246H642.508V244H626.458V246ZM648.527 246H664.577V244H648.527V246ZM670.596 246H686.646V244H670.596V246ZM692.665 246H708.715V244H692.665V246ZM714.734 246H730.784V244H714.734V246ZM736.803 246H752.853V244H736.803V246ZM758.872 246H774.922V244H758.872V246ZM780.941 246H796.991V244H780.941V246ZM803.01 246H819.06V244H803.01V246ZM825.078 246H841.129V244H825.078V246ZM847.147 246H863.198V244H847.147V246ZM869.216 246H885.267V244H869.216V246ZM891.285 246H907.336V244H891.285V246ZM913.354 246H929.405V244H913.354V246ZM935.423 246H951.474V244H935.423V246ZM957.492 246H973.542V244H957.492V246ZM979.561 246H995.611V244H979.561V246ZM1001.63 246H1017.68V244H1001.63V246ZM1023.7 246H1039.75V244H1023.7V246ZM1045.77 246H1061.82V244H1045.77V246ZM1067.84 246H1083.89V244H1067.84V246ZM1089.91 246H1105.96V244H1089.91V246ZM1111.98 246H1128.03V244H1111.98V246ZM1134.04 246H1150.09V244H1134.04V246ZM1156.11 246H1172.16V244H1156.11V246ZM1178.18 246H1194.23V244H1178.18V246ZM1200.25 246H1216.3V244H1200.25V246ZM1222.32 246H1238.37V244H1222.32V246ZM1244.39 246H1260.44V244H1244.39V246ZM1266.46 246H1282.51V244H1266.46V246ZM1288.53 246H1304.58V244H1288.53V246ZM1310.6 246H1326.65V244H1310.6V246ZM1332.66 246H1348.71V244H1332.66V246ZM1354.73 246H1370.78V244H1354.73V246ZM1376.8 246H1392.85V244H1376.8V246ZM1398.87 246H1414.92V244H1398.87V246ZM1420.94 246H1436.99V244H1420.94V246ZM1443.01 246H1459.06V244H1443.01V246ZM1465.08 246H1481.13V244H1465.08V246ZM1487.15 246H1503.2V244H1487.15V246ZM1509.22 246H1525.27V244H1509.22V246ZM1531.29 246H1547.34V244H1531.29V246ZM1553.35 246H1569.4V244H1553.35V246ZM1575.42 246H1591.47V244H1575.42V246ZM1597.49 246H1613.54V244H1597.49V246ZM1619.56 246H1635.61V244H1619.56V246ZM1641.63 246H1657.68V244H1641.63V246ZM1663.7 246H1679.75V244H1663.7V246ZM1685.77 246H1701.82V244H1685.77V246ZM1707.84 246H1723.89V244H1707.84V246ZM1729.91 246H1745.96V244H1729.91V246ZM1751.98 246H1760V244H1751.98V246ZM1760 -102H1751.97V-100H1760V-102ZM1745.96 -102H1729.91V-100H1745.96V-102ZM1723.89 -102H1707.84V-100H1723.89V-102ZM1701.82 -102H1685.77V-100H1701.82V-102ZM1679.75 -102H1663.7V-100H1679.75V-102ZM1657.68 -102H1641.63V-100H1657.68V-102ZM1635.61 -102H1619.56V-100H1635.61V-102ZM1613.54 -102H1597.49V-100H1613.54V-102ZM1591.47 -102H1575.42V-100H1591.47V-102ZM1569.4 -102H1553.35V-100H1569.4V-102ZM1547.34 -102H1531.29V-100H1547.34V-102ZM1525.27 -102H1509.22V-100H1525.27V-102ZM1503.2 -102H1487.15V-100H1503.2V-102ZM1481.13 -102H1465.08V-100H1481.13V-102ZM1459.06 -102H1443.01V-100H1459.06V-102ZM1436.99 -102H1420.94V-100H1436.99V-102ZM1414.92 -102H1398.87V-100H1414.92V-102ZM1392.85 -102H1376.8V-100H1392.85V-102ZM1370.78 -102H1354.73V-100H1370.78V-102ZM1348.71 -102H1332.66V-100H1348.71V-102ZM1326.65 -102H1310.6V-100H1326.65V-102ZM1304.58 -102H1288.53V-100H1304.58V-102ZM1282.51 -102H1266.46V-100H1282.51V-102ZM1260.44 -102H1244.39V-100H1260.44V-102ZM1238.37 -102H1222.32V-100H1238.37V-102ZM1216.3 -102H1200.25V-100H1216.3V-102ZM1194.23 -102H1178.18V-100H1194.23V-102ZM1172.16 -102H1156.11V-100H1172.16V-102ZM1150.09 -102H1134.04V-100H1150.09V-102ZM1128.03 -102H1111.97V-100H1128.03V-102ZM1105.96 -102H1089.91V-100H1105.96V-102ZM1083.89 -102H1067.84V-100H1083.89V-102ZM1061.82 -102H1045.77V-100H1061.82V-102ZM1039.75 -102H1023.7V-100H1039.75V-102ZM1017.68 -102H1001.63V-100H1017.68V-102ZM995.611 -102H979.561V-100H995.611V-102ZM973.542 -102H957.492V-100H973.542V-102ZM951.473 -102H935.423V-100H951.473V-102ZM929.404 -102H913.354V-100H929.404V-102ZM907.335 -102H891.285V-100H907.335V-102ZM885.266 -102H869.216V-100H885.266V-102ZM863.197 -102H847.147V-100H863.197V-102ZM841.128 -102H825.078V-100H841.128V-102ZM819.059 -102H803.009V-100H819.059V-102ZM796.99 -102H780.94V-100H796.99V-102ZM774.922 -102H758.871V-100H774.922V-102ZM752.853 -102H736.802V-100H752.853V-102ZM730.784 -102H714.733V-100H730.784V-102ZM708.715 -102H692.664V-100H708.715V-102ZM686.646 -102H670.595V-100H686.646V-102ZM664.577 -102H648.526V-100H664.577V-102ZM642.508 -102H626.458V-100H642.508V-102ZM620.439 -102H604.389V-100H620.439V-102ZM598.37 -102H582.32V-100H598.37V-102ZM576.301 -102H560.251V-100H576.301V-102ZM554.232 -102H538.182V-100H554.232V-102ZM532.163 -102H516.113V-100H532.163V-102ZM510.094 -102H494.044V-100H510.094V-102ZM488.025 -102H471.975V-100H488.025V-102ZM465.956 -102H449.906V-100H465.956V-102ZM443.887 -102H427.837V-100H443.887V-102ZM421.818 -102H405.768V-100H421.818V-102ZM399.749 -102H383.699V-100H399.749V-102ZM377.68 -102H361.63V-100H377.68V-102ZM355.611 -102H339.561V-100H355.611V-102ZM333.542 -102H317.492V-100H333.542V-102ZM311.473 -102H295.423V-100H311.473V-102ZM289.404 -102H273.354V-100H289.404V-102ZM267.335 -102H251.285V-100H267.335V-102ZM245.266 -102H229.216V-100H245.266V-102ZM223.197 -102H207.147V-100H223.197V-102ZM201.128 -102H185.078V-100H201.128V-102ZM179.059 -102H163.009V-100H179.059V-102ZM156.99 -102H140.94V-100H156.99V-102ZM134.921 -102H118.871V-100H134.921V-102ZM112.852 -102H96.8022V-100H112.852V-102ZM90.7834 -102H74.7333V-100H90.7834V-102ZM68.7145 -102H52.6643V-100H68.7145V-102ZM46.6455 -102H30.5953V-100H46.6455V-102ZM24.5765 -102H8.52638V-100H24.5765V-102ZM2.5076 -102H-13.5426V-100H2.5076V-102ZM-19.5614 -102H-35.6115V-100H-19.5614V-102ZM-41.6303 -102H-57.6805V-100H-41.6303V-102ZM-63.6993 -102H-79.7496V-100H-63.6993V-102ZM-85.7684 -102H-101.818V-100H-85.7684V-102ZM-107.837 -102H-123.887V-100H-107.837V-102ZM-129.906 -102H-145.956V-100H-129.906V-102ZM-151.975 -102H-160V-100H-151.975V-102ZM-160 247H-151.975V243H-160V247ZM-145.956 247H-129.906V243H-145.956V247ZM-123.887 247H-107.837V243H-123.887V247ZM-101.818 247H-85.768V243H-101.818V247ZM-79.7492 247H-63.6991V243H-79.7492V247ZM-57.6803 247H-41.6301V243H-57.6803V247ZM-35.6113 247H-19.5611V243H-35.6113V247ZM-13.5423 247H2.50784V243H-13.5423V247ZM8.52666 247H24.5768V243H8.52666V247ZM30.5956 247H46.6458V243H30.5956V247ZM52.6646 247H68.7148V243H52.6646V247ZM74.7336 247H90.7837V243H74.7336V247ZM96.8025 247H112.853V243H96.8025V247ZM118.871 247H134.922V243H118.871V247ZM140.94 247H156.991V243H140.94V247ZM163.009 247H179.06V243H163.009V247ZM185.078 247H201.129V243H185.078V247ZM207.147 247H223.198V243H207.147V247ZM229.216 247H245.267V243H229.216V247ZM251.285 247H267.335V243H251.285V247ZM273.354 247H289.404V243H273.354V247ZM295.423 247H311.473V243H295.423V247ZM317.492 247H333.542V243H317.492V247ZM339.561 247H355.611V243H339.561V247ZM361.63 247H377.68V243H361.63V247ZM383.699 247H399.749V243H383.699V247ZM405.768 247H421.818V243H405.768V247ZM427.837 247H443.887V243H427.837V247ZM449.906 247H465.956V243H449.906V247ZM471.975 247H488.025V243H471.975V247ZM494.044 247H510.094V243H494.044V247ZM516.113 247H532.163V243H516.113V247ZM538.182 247H554.232V243H538.182V247ZM560.251 247H576.301V243H560.251V247ZM582.32 247H598.37V243H582.32V247ZM604.389 247H620.439V243H604.389V247ZM626.458 247H642.508V243H626.458V247ZM648.527 247H664.577V243H648.527V247ZM670.596 247H686.646V243H670.596V247ZM692.665 247H708.715V243H692.665V247ZM714.734 247H730.784V243H714.734V247ZM736.803 247H752.853V243H736.803V247ZM758.872 247H774.922V243H758.872V247ZM780.941 247H796.991V243H780.941V247ZM803.01 247H819.06V243H803.01V247ZM825.078 247H841.129V243H825.078V247ZM847.147 247H863.198V243H847.147V247ZM869.216 247H885.267V243H869.216V247ZM891.285 247H907.336V243H891.285V247ZM913.354 247H929.405V243H913.354V247ZM935.423 247H951.474V243H935.423V247ZM957.492 247H973.542V243H957.492V247ZM979.561 247H995.611V243H979.561V247ZM1001.63 247H1017.68V243H1001.63V247ZM1023.7 247H1039.75V243H1023.7V247ZM1045.77 247H1061.82V243H1045.77V247ZM1067.84 247H1083.89V243H1067.84V247ZM1089.91 247H1105.96V243H1089.91V247ZM1111.98 247H1128.03V243H1111.98V247ZM1134.04 247H1150.09V243H1134.04V247ZM1156.11 247H1172.16V243H1156.11V247ZM1178.18 247H1194.23V243H1178.18V247ZM1200.25 247H1216.3V243H1200.25V247ZM1222.32 247H1238.37V243H1222.32V247ZM1244.39 247H1260.44V243H1244.39V247ZM1266.46 247H1282.51V243H1266.46V247ZM1288.53 247H1304.58V243H1288.53V247ZM1310.6 247H1326.65V243H1310.6V247ZM1332.66 247H1348.71V243H1332.66V247ZM1354.73 247H1370.78V243H1354.73V247ZM1376.8 247H1392.85V243H1376.8V247ZM1398.87 247H1414.92V243H1398.87V247ZM1420.94 247H1436.99V243H1420.94V247ZM1443.01 247H1459.06V243H1443.01V247ZM1465.08 247H1481.13V243H1465.08V247ZM1487.15 247H1503.2V243H1487.15V247ZM1509.22 247H1525.27V243H1509.22V247ZM1531.29 247H1547.34V243H1531.29V247ZM1553.35 247H1569.4V243H1553.35V247ZM1575.42 247H1591.47V243H1575.42V247ZM1597.49 247H1613.54V243H1597.49V247ZM1619.56 247H1635.61V243H1619.56V247ZM1641.63 247H1657.68V243H1641.63V247ZM1663.7 247H1679.75V243H1663.7V247ZM1685.77 247H1701.82V243H1685.77V247ZM1707.84 247H1723.89V243H1707.84V247ZM1729.91 247H1745.96V243H1729.91V247ZM1751.98 247H1760V243H1751.98V247ZM1760 -103H1751.97V-99H1760V-103ZM1745.96 -103H1729.91V-99H1745.96V-103ZM1723.89 -103H1707.84V-99H1723.89V-103ZM1701.82 -103H1685.77V-99H1701.82V-103ZM1679.75 -103H1663.7V-99H1679.75V-103ZM1657.68 -103H1641.63V-99H1657.68V-103ZM1635.61 -103H1619.56V-99H1635.61V-103ZM1613.54 -103H1597.49V-99H1613.54V-103ZM1591.47 -103H1575.42V-99H1591.47V-103ZM1569.4 -103H1553.35V-99H1569.4V-103ZM1547.34 -103H1531.29V-99H1547.34V-103ZM1525.27 -103H1509.22V-99H1525.27V-103ZM1503.2 -103H1487.15V-99H1503.2V-103ZM1481.13 -103H1465.08V-99H1481.13V-103ZM1459.06 -103H1443.01V-99H1459.06V-103ZM1436.99 -103H1420.94V-99H1436.99V-103ZM1414.92 -103H1398.87V-99H1414.92V-103ZM1392.85 -103H1376.8V-99H1392.85V-103ZM1370.78 -103H1354.73V-99H1370.78V-103ZM1348.71 -103H1332.66V-99H1348.71V-103ZM1326.65 -103H1310.6V-99H1326.65V-103ZM1304.58 -103H1288.53V-99H1304.58V-103ZM1282.51 -103H1266.46V-99H1282.51V-103ZM1260.44 -103H1244.39V-99H1260.44V-103ZM1238.37 -103H1222.32V-99H1238.37V-103ZM1216.3 -103H1200.25V-99H1216.3V-103ZM1194.23 -103H1178.18V-99H1194.23V-103ZM1172.16 -103H1156.11V-99H1172.16V-103ZM1150.09 -103H1134.04V-99H1150.09V-103ZM1128.03 -103H1111.97V-99H1128.03V-103ZM1105.96 -103H1089.91V-99H1105.96V-103ZM1083.89 -103H1067.84V-99H1083.89V-103ZM1061.82 -103H1045.77V-99H1061.82V-103ZM1039.75 -103H1023.7V-99H1039.75V-103ZM1017.68 -103H1001.63V-99H1017.68V-103ZM995.611 -103H979.561V-99H995.611V-103ZM973.542 -103H957.492V-99H973.542V-103ZM951.473 -103H935.423V-99H951.473V-103ZM929.404 -103H913.354V-99H929.404V-103ZM907.335 -103H891.285V-99H907.335V-103ZM885.266 -103H869.216V-99H885.266V-103ZM863.197 -103H847.147V-99H863.197V-103ZM841.128 -103H825.078V-99H841.128V-103ZM819.059 -103H803.009V-99H819.059V-103ZM796.99 -103H780.94V-99H796.99V-103ZM774.922 -103H758.871V-99H774.922V-103ZM752.853 -103H736.802V-99H752.853V-103ZM730.784 -103H714.733V-99H730.784V-103ZM708.715 -103H692.664V-99H708.715V-103ZM686.646 -103H670.595V-99H686.646V-103ZM664.577 -103H648.526V-99H664.577V-103ZM642.508 -103H626.458V-99H642.508V-103ZM620.439 -103H604.389V-99H620.439V-103ZM598.37 -103H582.32V-99H598.37V-103ZM576.301 -103H560.251V-99H576.301V-103ZM554.232 -103H538.182V-99H554.232V-103ZM532.163 -103H516.113V-99H532.163V-103ZM510.094 -103H494.044V-99H510.094V-103ZM488.025 -103H471.975V-99H488.025V-103ZM465.956 -103H449.906V-99H465.956V-103ZM443.887 -103H427.837V-99H443.887V-103ZM421.818 -103H405.768V-99H421.818V-103ZM399.749 -103H383.699V-99H399.749V-103ZM377.68 -103H361.63V-99H377.68V-103ZM355.611 -103H339.561V-99H355.611V-103ZM333.542 -103H317.492V-99H333.542V-103ZM311.473 -103H295.423V-99H311.473V-103ZM289.404 -103H273.354V-99H289.404V-103ZM267.335 -103H251.285V-99H267.335V-103ZM245.266 -103H229.216V-99H245.266V-103ZM223.197 -103H207.147V-99H223.197V-103ZM201.128 -103H185.078V-99H201.128V-103ZM179.059 -103H163.009V-99H179.059V-103ZM156.99 -103H140.94V-99H156.99V-103ZM134.921 -103H118.871V-99H134.921V-103ZM112.852 -103H96.8022V-99H112.852V-103ZM90.7834 -103H74.7333V-99H90.7834V-103ZM68.7145 -103H52.6643V-99H68.7145V-103ZM46.6455 -103H30.5953V-99H46.6455V-103ZM24.5765 -103H8.52638V-99H24.5765V-103ZM2.5076 -103H-13.5426V-99H2.5076V-103ZM-19.5614 -103H-35.6115V-99H-19.5614V-103ZM-41.6303 -103H-57.6805V-99H-41.6303V-103ZM-63.6993 -103H-79.7496V-99H-63.6993V-103ZM-85.7684 -103H-101.818V-99H-85.7684V-103ZM-107.837 -103H-123.887V-99H-107.837V-103ZM-129.906 -103H-145.956V-99H-129.906V-103ZM-151.975 -103H-160V-99H-151.975V-103Z" fill="#262626" mask="url(#path-3-inside-2_16_22)"/>
<g filter="url(#filter0_d_16_22)">
<path d="M669.238 113.714V38.159H689.747V113.714H669.238ZM718.554 113.714V69.1319C718.554 64.7519 717.145 61.3626 714.327 58.964C711.613 56.4612 708.221 55.2097 704.15 55.2097C701.437 55.2097 698.984 55.7833 696.792 56.9304C694.601 57.9733 692.878 59.5376 691.626 61.6233C690.373 63.709 689.747 66.2119 689.747 69.1319L681.763 65.2212C681.763 59.3812 683.015 54.3233 685.52 50.0476C688.13 45.7719 691.626 42.4869 696.009 40.1926C700.393 37.794 705.351 36.5947 710.882 36.5947C716.101 36.5947 720.85 37.794 725.129 40.1926C729.408 42.4869 732.8 45.7719 735.305 50.0476C737.81 54.219 739.062 59.2769 739.062 65.2212V113.714H718.554ZM767.869 113.714V69.1319C767.869 64.7519 766.46 61.3626 763.642 58.964C760.928 56.4612 757.536 55.2097 753.466 55.2097C750.856 55.2097 748.404 55.7833 746.108 56.9304C743.916 57.9733 742.194 59.5376 740.941 61.6233C739.689 63.709 739.062 66.2119 739.062 69.1319L727.321 66.3162C727.738 60.2676 729.356 55.0533 732.174 50.6733C734.992 46.189 738.697 42.7476 743.29 40.349C747.882 37.8462 752.996 36.5947 758.632 36.5947C764.268 36.5947 769.33 37.794 773.818 40.1926C778.306 42.4869 781.855 45.824 784.464 50.204C787.073 54.584 788.378 59.7983 788.378 65.8469V113.714H767.869Z" fill="white"/>
<path d="M615.644 115.279C608.024 115.279 601.136 113.558 594.978 110.117C588.925 106.571 584.071 101.826 580.418 95.8818C576.87 89.8333 575.095 83.1068 575.095 75.7025C575.095 68.2982 576.87 61.6761 580.418 55.8361C583.967 49.8918 588.82 45.199 594.978 41.7575C601.136 38.2118 607.972 36.439 615.487 36.439C623.21 36.439 630.099 38.2118 636.152 41.7575C642.31 45.199 647.164 49.8918 650.712 55.8361C654.261 61.6761 656.035 68.2982 656.035 75.7025C656.035 83.1068 654.261 89.8333 650.712 95.8818C647.164 101.826 642.31 106.571 636.152 110.117C630.099 113.558 623.263 115.279 615.644 115.279ZM615.487 96.1947C619.349 96.1947 622.741 95.3604 625.663 93.6918C628.69 91.919 630.986 89.5204 632.552 86.4961C634.222 83.3675 635.057 79.8218 635.057 75.859C635.057 71.8961 634.222 68.4025 632.552 65.3783C630.882 62.354 628.586 60.0075 625.663 58.339C622.741 56.5661 619.349 55.6797 615.487 55.6797C611.73 55.6797 608.39 56.5661 605.467 58.339C602.545 60.0075 600.249 62.354 598.579 65.3783C596.909 68.4025 596.074 71.8961 596.074 75.859C596.074 79.8218 596.909 83.3675 598.579 86.4961C600.249 89.5204 602.545 91.919 605.467 93.6918C608.39 95.3604 611.73 96.1947 615.487 96.1947Z" fill="white"/>
<path d="M526.511 115.279C518.891 115.279 512.003 113.558 505.845 110.117C499.792 106.571 494.938 101.826 491.285 95.8818C487.737 89.8333 485.962 83.1068 485.962 75.7025C485.962 68.2982 487.737 61.6761 491.285 55.8361C494.834 49.8918 499.687 45.199 505.845 41.7575C512.003 38.2118 518.839 36.439 526.354 36.439C534.077 36.439 540.966 38.2118 547.019 41.7575C553.177 45.199 558.03 49.8918 561.579 55.8361C565.128 61.6761 566.902 68.2982 566.902 75.7025C566.902 83.1068 565.128 89.8333 561.579 95.8818C558.03 101.826 553.177 106.571 547.019 110.117C540.966 113.558 534.13 115.279 526.511 115.279ZM526.354 96.1947C530.216 96.1947 533.608 95.3604 536.53 93.6918C539.557 91.919 541.853 89.5204 543.419 86.4961C545.089 83.3675 545.923 79.8218 545.923 75.859C545.923 71.8961 545.089 68.4025 543.419 65.3783C541.749 62.354 539.452 60.0075 536.53 58.339C533.608 56.5661 530.216 55.6797 526.354 55.6797C522.597 55.6797 519.257 56.5661 516.334 58.339C513.412 60.0075 511.116 62.354 509.446 65.3783C507.776 68.4025 506.941 71.8961 506.941 75.859C506.941 79.8218 507.776 83.3675 509.446 86.4961C511.116 89.5204 513.412 91.919 516.334 93.6918C519.257 95.3604 522.597 96.1947 526.354 96.1947Z" fill="white"/>
<path d="M408.159 113.714V3.74512H429.45V113.714H408.159ZM423.814 113.714V94.7865H479.862V113.714H423.814Z" fill="white"/>
<path d="M373.885 115.278C370.128 115.278 367.049 114.027 364.648 111.524C362.248 109.021 361.048 105.945 361.048 102.295C361.048 98.6446 362.248 95.5682 364.648 93.0653C367.049 90.5625 370.128 89.311 373.885 89.311C377.538 89.311 380.565 90.5625 382.966 93.0653C385.366 95.5682 386.566 98.6446 386.566 102.295C386.566 105.945 385.366 109.021 382.966 111.524C380.565 114.027 377.538 115.278 373.885 115.278Z" fill="#B8A893"/>
<path d="M311.26 115.279C303.328 115.279 296.283 113.61 290.125 110.273C283.967 106.832 279.062 102.139 275.409 96.1947C271.86 90.2504 270.086 83.4718 270.086 75.859C270.086 68.3504 271.808 61.6761 275.252 55.8361C278.801 49.8918 283.602 45.199 289.655 41.7575C295.709 38.2118 302.441 36.439 309.851 36.439C317.157 36.439 323.576 38.1075 329.108 41.4447C334.744 44.6775 339.127 49.1618 342.258 54.8975C345.494 60.529 347.112 66.9425 347.112 74.1383C347.112 75.494 347.007 76.9018 346.799 78.3618C346.694 79.7175 346.433 81.2818 346.016 83.0547L282.454 83.2111V67.8811L336.466 67.7247L328.168 74.1383C327.96 69.654 327.125 65.8997 325.663 62.8754C324.307 59.8511 322.271 57.5568 319.558 55.9925C316.948 54.324 313.713 53.4897 309.851 53.4897C305.781 53.4897 302.232 54.4283 299.205 56.3054C296.179 58.0783 293.83 60.6332 292.16 63.9704C290.595 67.2032 289.812 71.0618 289.812 75.5461C289.812 80.1347 290.647 84.1497 292.317 87.5911C294.091 90.9282 296.596 93.5354 299.832 95.4125C303.067 97.1854 306.824 98.0718 311.104 98.0718C314.965 98.0718 318.462 97.4461 321.593 96.1947C324.724 94.839 327.438 92.8575 329.734 90.2504L341.789 102.295C338.136 106.571 333.648 109.804 328.325 111.994C323.106 114.184 317.418 115.279 311.26 115.279Z" fill="white"/>
<path d="M236.415 113.715V0.616699H256.924V113.715H236.415Z" fill="white"/>
<path d="M179.64 114.34L148.016 38.1592H170.247L191.226 96.3506H183.711L205.472 38.1592H227.86L194.2 114.183L179.64 114.34ZM158.662 145.313L181.676 96.6635L194.2 114.183L180.423 145.313H158.662Z" fill="white"/>
<path d="M106.11 113.714V6.7168H126.619V113.714H106.11ZM88.4196 56.1482V38.1589H144.31V56.1482H88.4196Z" fill="white"/>
<path d="M39.9911 115.278C31.1195 115.278 23.5005 113.766 17.1339 110.742C10.8716 107.718 5.18339 103.181 0.0692139 97.1325L14.1593 83.0539C17.3948 87.3296 21.1521 90.6668 25.4313 93.0654C29.7105 95.3597 34.9291 96.5068 41.087 96.5068C46.6186 96.5068 51.0022 95.4118 54.2377 93.2218C57.5776 91.0318 59.2475 88.0075 59.2475 84.1489C59.2475 80.8118 58.3082 78.1004 56.4295 76.0146C54.5508 73.9289 52.0459 72.1561 48.9148 70.6961C45.888 69.2361 42.496 67.9325 38.7386 66.7854C35.0856 65.5339 31.3805 64.1261 27.6231 62.5618C23.9701 60.9975 20.5781 59.0682 17.447 56.7739C14.4202 54.3754 11.9675 51.3511 10.0888 47.7011C8.21014 43.9468 7.2708 39.2539 7.2708 33.6225C7.2708 26.9482 8.88855 21.2646 12.124 16.5718C15.3595 11.8789 19.7953 8.28107 25.4313 5.77821C31.0674 3.27535 37.434 2.02393 44.5312 2.02393C52.0459 2.02393 58.83 3.43178 64.8835 6.2475C70.937 9.06321 75.8946 12.7132 79.7564 17.1975L65.6663 31.2761C62.4308 27.7304 59.0909 25.1232 55.6467 23.4546C52.3068 21.7861 48.4973 20.9518 44.2181 20.9518C39.3127 20.9518 35.4509 21.8904 32.6329 23.7675C29.8149 25.6446 28.4059 28.3561 28.4059 31.9018C28.4059 34.9261 29.3452 37.3768 31.2239 39.2539C33.1026 41.1311 35.5553 42.7475 38.5821 44.1032C41.7132 45.4589 45.1052 46.7625 48.7582 48.0139C52.5156 49.2654 56.2207 50.6732 59.8737 52.2375C63.6311 53.8018 67.0231 55.8354 70.0499 58.3382C73.181 60.8411 75.6859 64.0739 77.5646 68.0368C79.4433 71.8954 80.3826 76.6925 80.3826 82.4282C80.3826 92.6482 76.7818 100.678 69.5802 106.518C62.3786 112.358 52.5156 115.278 39.9911 115.278Z" fill="white"/>
</g>
</g>
<defs>
<filter id="filter0_d_16_22" x="-3.93079" y="-1" width="797.931" height="154.313" filterUnits="userSpaceOnUse" color-interpolation-filters="sRGB">
<feFlood flood-opacity="0" result="BackgroundImageFix"/>
<feColorMatrix in="SourceAlpha" type="matrix" values="0 0 0 0 0 0 0 0 0 0 0 0 0 0 0 0 0 0 127 0" result="hardAlpha"/>
<feOffset dy="4"/>
<feGaussianBlur stdDeviation="2"/>
<feComposite in2="hardAlpha" operator="out"/>
<feColorMatrix type="matrix" values="0 0 0 0 0 0 0 0 0 0 0 0 0 0 0 0 0 0 0.25 0"/>
<feBlend mode="normal" in2="BackgroundImageFix" result="effect1_dropShadow_16_22"/>
<feBlend mode="normal" in="SourceGraphic" in2="effect1_dropShadow_16_22" result="shape"/>
</filter>
<clipPath id="clip0_16_22">
<rect width="1920" height="8612" fill="#000000" transform="translate(-160 -7961)"/>
</clipPath>
</defs>
</svg>
