<svg width="164" height="182" viewBox="0 0 164 182" fill="none" xmlns="http://www.w3.org/2000/svg">
<path d="M10.4064 4.4064C-1.13547 15.9483 -1.13547 34.6613 10.4064 46.2032L26.6807 62.4775C26.8029 62.3362 26.9311 62.1983 27.0653 62.0641L68.0653 21.0641C68.1991 20.9303 68.3366 20.8025 68.4774 20.6806L52.2032 4.4064C40.6613 -7.13547 21.9483 -7.13547 10.4064 4.4064Z" stroke="#262626" stroke-width="2" stroke-dasharray="16 6"/>
<path d="M79.3205 31.5237C79.1987 31.6646 79.0708 31.8021 78.937 31.9359L37.937 72.9359C37.8029 73.0701 37.6649 73.1983 37.5236 73.3204L135.797 171.594C147.339 183.135 166.052 183.135 177.594 171.594C189.135 160.052 189.135 141.339 177.594 129.797L79.3205 31.5237Z" stroke="#262626" stroke-width="2" stroke-dasharray="16 6"/>
<path d="M136.025 -11.3513C137.675 -15.5496 143.595 -15.5496 145.244 -11.3513L149.656 -0.124639C150.159 1.15711 151.17 2.17171 152.447 2.67723L163.633 7.10496C167.815 8.76073 167.815 14.7023 163.633 16.3581L152.447 20.7858C151.17 21.2913 150.159 22.3059 149.656 23.5877L145.244 34.8143C143.595 39.0126 137.675 39.0126 136.025 34.8143L131.614 23.5877C131.11 22.3059 130.099 21.2913 128.822 20.7858L117.637 16.3581C113.454 14.7023 113.454 8.76073 117.637 7.10496L128.822 2.67723C130.099 2.17171 131.11 1.15711 131.614 -0.124639L136.025 -11.3513Z" stroke="#262626" stroke-width="2" stroke-dasharray="16 6"/>
<path d="M175.664 58.5769C177.313 54.3787 183.233 54.3787 184.883 58.5769L186.491 62.6702C186.995 63.952 188.006 64.9666 189.283 65.4721L193.361 67.0865C197.544 68.7422 197.544 74.6838 193.361 76.3395L189.283 77.9539C188.006 78.4594 186.995 79.474 186.491 80.7558L184.883 84.8491C183.233 89.0473 177.313 89.0473 175.664 84.8491L174.055 80.7558C173.552 79.474 172.541 78.4594 171.264 77.9539L167.185 76.3395C163.003 74.6838 163.003 68.7422 167.185 67.0865L171.264 65.4721C172.541 64.9666 173.552 63.952 174.055 62.6702L175.664 58.5769Z" stroke="#262626" stroke-width="2" stroke-dasharray="16 6"/>
<path d="M23.6153 121.899C25.2649 117.7 31.1846 117.7 32.8343 121.899L34.4427 125.992C34.9464 127.274 35.9572 128.288 37.2342 128.794L41.3125 130.408C45.4952 132.064 45.4952 138.006 41.3125 139.661L37.2342 141.276C35.9572 141.781 34.9464 142.796 34.4427 144.078L32.8343 148.171C31.1846 152.369 25.2649 152.369 23.6153 148.171L22.0068 144.078C21.5032 142.796 20.4923 141.781 19.2153 141.276L15.1371 139.661C10.9543 138.006 10.9543 132.064 15.1371 130.408L19.2153 128.794C20.4923 128.288 21.5032 127.274 22.0068 125.992L23.6153 121.899Z" stroke="#262626" stroke-width="2" stroke-dasharray="16 6"/>
</svg>
